<?xml version="1.0" encoding="UTF-8"?>
<svg xmlns="http://www.w3.org/2000/svg" xmlns:xlink="http://www.w3.org/1999/xlink" viewBox="0 0 150 150" width="150px" height="150px">
<g id="surface144887427">
<path style=" stroke:none;fill-rule:nonzero;fill:rgb(100%,100%,100%);fill-opacity:1;" d="M 73.207031 27 C 53.402344 27 34.804688 28.5 24.902344 30.597656 C 18.304688 32.097656 12.597656 36.597656 11.402344 43.5 C 10.207031 50.695312 9 61.5 9 75 C 9 88.5 10.195312 99 11.695312 106.5 C 12.902344 113.097656 18.597656 117.902344 25.195312 119.402344 C 35.707031 121.5 53.695312 123 73.5 123 C 93.304688 123 111.292969 121.5 121.792969 119.402344 C 128.402344 117.902344 134.097656 113.402344 135.292969 106.5 C 136.5 99 138 88.207031 138.292969 74.707031 C 138.292969 61.207031 136.792969 50.402344 135.292969 42.902344 C 134.097656 36.304688 128.402344 31.5 121.792969 30 C 111.292969 28.5 93 27 73.207031 27 Z M 73.207031 33 C 94.804688 33 112.195312 34.792969 120.597656 36.292969 C 125.097656 37.5 128.695312 40.5 129.292969 44.402344 C 131.097656 54 132.292969 64.207031 132.292969 74.707031 C 132 87.597656 130.5 98.097656 129.292969 105.597656 C 128.402344 111.292969 122.402344 113.097656 120.597656 113.707031 C 109.792969 115.804688 91.792969 117.292969 73.792969 117.292969 C 55.792969 117.292969 37.5 116.097656 27 113.707031 C 22.5 112.5 18.902344 109.5 18.304688 105.597656 C 15.902344 97.195312 15 86.097656 15 75 C 15 61.195312 16.207031 51 17.402344 44.707031 C 18.304688 39 24.597656 37.195312 26.097656 36.597656 C 36 34.5 54.304688 33 73.207031 33 Z M 57 51 L 57 99 L 99 75 Z M 63 61.207031 L 87 75 L 63 88.792969 Z M 63 61.207031 "/>
</g>
</svg>
